<?xml version="1.0" encoding="utf-8"?>
<!-- Generator: Adobe Illustrator 27.5.0, SVG Export Plug-In . SVG Version: 6.00 Build 0)  -->
<svg version="1.1" id="Layer_1" xmlns="http://www.w3.org/2000/svg" xmlns:xlink="http://www.w3.org/1999/xlink" x="0px" y="0px"
	 viewBox="0 0 143 32" style="enable-background:new 0 0 143 32;" xml:space="preserve">
<style type="text/css">
	.st0{fill-rule:evenodd;clip-rule:evenodd;fill:#FFFFFF;}
</style>
<path class="st0" d="M140.3,9.4h-0.4v0.5h0.4c0.2,0,0.3-0.1,0.3-0.2C140.6,9.5,140.5,9.4,140.3,9.4z M139.5,9h0.8
	c0.5,0,0.8,0.2,0.8,0.6c0,0.2-0.1,0.4-0.3,0.5l0.3,0.5v0.1h-0.5l-0.3-0.5h-0.4v0.5h-0.5L139.5,9L139.5,9z M141.8,9.9
	c0-0.9-0.6-1.6-1.6-1.6c-0.9,0-1.6,0.7-1.6,1.6c0,0.9,0.6,1.6,1.6,1.6C141.2,11.6,141.8,10.9,141.8,9.9z M142.2,9.9c0,1.1-0.7,2-2,2
	c-1.2,0-2-0.9-2-2c0-1.1,0.7-2,2-2C141.5,7.9,142.2,8.8,142.2,9.9z M31.3,13.8L27.4,16l3.8,2.2c0.9,0.5,1.3,1.7,0.8,2.7c0,0,0,0,0,0
	c-0.6,0.9-1.8,1.3-2.7,0.7l-6.8-3.9c-0.4-0.2-0.8-0.7-0.9-1.1c-0.1-0.2-0.1-0.4-0.1-0.6c0-0.2,0-0.3,0.1-0.5
	c0.1-0.5,0.5-0.9,0.9-1.2l6.8-3.9c1-0.5,2.2-0.2,2.7,0.7C32.6,12.1,32.2,13.3,31.3,13.8z M27.6,24.4l-6.8-3.9
	c-0.4-0.2-0.8-0.3-1.2-0.3c-1,0.1-1.9,0.9-1.9,2V30c0,1.1,0.9,2,2,2c1.1,0,2-0.9,2-2v-4.4l3.8,2.2c1,0.6,2.2,0.2,2.7-0.7
	C28.9,26.2,28.6,24.9,27.6,24.4L27.6,24.4z M19.8,16.8l-2.8,2.8c-0.1,0.1-0.2,0.1-0.4,0.1h-0.8c-0.1,0-0.3-0.1-0.4-0.1l-2.8-2.8
	c-0.1-0.1-0.1-0.2-0.1-0.4v-0.8c0-0.1,0.1-0.3,0.1-0.4l2.8-2.8c0.1-0.1,0.2-0.1,0.4-0.1h0.8c0.1,0,0.3,0.1,0.4,0.1l2.8,2.8
	c0.1,0.1,0.1,0.2,0.1,0.4v0.8C19.9,16.5,19.8,16.7,19.8,16.8z M17.5,16c0-0.1-0.1-0.3-0.2-0.4l-0.8-0.8c-0.1-0.1-0.2-0.1-0.4-0.1h0
	c-0.1,0-0.3,0.1-0.4,0.1l-0.8,0.8c-0.1,0.1-0.1,0.2-0.1,0.4v0c0,0.1,0.1,0.3,0.1,0.4l0.8,0.8c0.1,0.1,0.2,0.1,0.4,0.1h0
	c0.1,0,0.3-0.1,0.4-0.1l0.8-0.8C17.4,16.3,17.5,16.1,17.5,16L17.5,16z M4.6,7.6l6.8,3.9c0.4,0.2,0.8,0.3,1.2,0.3
	c1-0.1,1.9-0.9,1.9-2V2c0-1.1-0.9-2-2-2c-1.1,0-2,0.9-2,2v4.4L6.6,4.2c-1-0.5-2.2-0.2-2.7,0.7C3.3,5.8,3.7,7,4.6,7.6
	C4.6,7.6,4.6,7.6,4.6,7.6L4.6,7.6z M19.6,11.8c0.4,0,0.8-0.1,1.2-0.3l6.8-3.9c1-0.5,1.3-1.7,0.8-2.7c0,0,0,0,0,0
	c-0.6-1-1.8-1.3-2.7-0.7l-3.8,2.2V2c0-1.1-0.9-2-2-2c-1.1,0-2,0.9-2,2v7.8C17.8,10.8,18.6,11.7,19.6,11.8L19.6,11.8z M12.6,20.2
	c-0.4,0-0.8,0.1-1.2,0.3l-6.8,3.9c-1,0.5-1.3,1.7-0.7,2.7c0,0,0,0,0,0c0.6,1,1.8,1.3,2.7,0.7l3.8-2.2V30c0,1.1,0.9,2,2,2
	c1.1,0,2-0.9,2-2v-7.8C14.5,21.2,13.7,20.3,12.6,20.2L12.6,20.2z M10.8,16.6c0.1-0.2,0.1-0.4,0.1-0.6c0-0.7-0.4-1.3-1-1.7L3,10.4
	c-1-0.5-2.2-0.2-2.7,0.7C-0.3,12.1,0,13.3,1,13.8L4.8,16L1,18.2c-1,0.5-1.3,1.7-0.8,2.7c0,0,0,0,0,0c0.6,1,1.8,1.3,2.7,0.7l6.8-3.9
	C10.3,17.5,10.6,17,10.8,16.6L10.8,16.6z M95.6,4.9h-0.2c0,0,0,0-0.1,0c0,0,0,0-0.1,0c-0.5,0-1,0.1-1.4,0.2
	c-0.4,0.1-0.8,0.4-1.1,0.7l0,0v0c-0.3,0.4-0.5,0.8-0.7,1.3c-0.1,0.5-0.2,1-0.2,1.6V10h-1.3c-0.5,0-0.8,0.4-0.8,0.8
	c0,0.2,0.1,0.4,0.2,0.6c0.2,0.2,0.4,0.3,0.6,0.3h1.3v9.7l0,0c0,0.2,0.1,0.4,0.3,0.6c0.2,0.1,0.4,0.2,0.6,0.2c0.5,0,0.8-0.4,0.8-0.8
	v-9.7H95c0.2,0,0.4-0.1,0.6-0.3c0.2-0.2,0.3-0.4,0.3-0.6v0c0-0.4-0.4-0.8-0.8-0.8h-1.4V8.8c0-0.5,0.1-0.9,0.1-1.2
	C93.8,7.3,93.9,7.1,94,7c0.1-0.1,0.3-0.2,0.4-0.2c0.2-0.1,0.5-0.1,0.8-0.1h0c0,0,0,0,0.1,0c0,0,0.1,0,0.1,0h0.2
	c0.5,0,0.9-0.4,0.9-0.8C96.5,5.3,96.1,4.9,95.6,4.9C95.7,4.9,95.7,4.9,95.6,4.9z M125.2,11.2c0.2-0.2,0.3-0.4,0.3-0.6
	c0-0.2-0.1-0.4-0.3-0.6h0c0,0,0,0,0,0c0,0,0,0,0,0h0c-0.2-0.2-0.4-0.2-0.6-0.2c-0.2,0-0.4,0.1-0.6,0.2l-6.6,6.3V5.7
	c0-0.5-0.4-0.8-0.9-0.8c-0.2,0-0.4,0.1-0.6,0.2c-0.2,0.2-0.2,0.4-0.2,0.6v15.6c0,0.2,0.1,0.4,0.2,0.6c0.2,0.2,0.4,0.2,0.6,0.2
	c0.5,0,0.9-0.4,0.9-0.8v-2.6l2.1-2.1l4.4,5.2c0.1,0.1,0.2,0.2,0.3,0.2c0.1,0,0.2,0.1,0.4,0.1c0.2,0,0.4-0.1,0.6-0.2l0,0l0,0
	c0.2-0.2,0.3-0.4,0.3-0.6c0-0.2-0.1-0.4-0.2-0.6v0l-4.5-5.3L125.2,11.2L125.2,11.2L125.2,11.2L125.2,11.2z M113.3,10.2
	c0.2,0.1,0.3,0.4,0.3,0.6v10.6c0,0.2-0.1,0.4-0.2,0.6c-0.2,0.2-0.4,0.2-0.6,0.2c-0.2,0-0.4-0.1-0.6-0.2c-0.2-0.2-0.2-0.4-0.2-0.6v-1
	c-1.1,1.1-2.6,1.9-4.2,1.9c-1.6,0-3.1-0.7-4.2-1.8c-1.1-1.2-1.7-2.7-1.7-4.3c0-1.7,0.7-3.2,1.7-4.3c1.1-1.2,2.6-1.8,4.2-1.8
	c1.6,0,3.1,0.7,4.2,1.8v-1c0-0.5,0.4-0.8,0.8-0.8c0,0,0,0,0,0C112.9,9.9,113.1,10,113.3,10.2z M111.8,16c0-1.2-0.5-2.4-1.2-3.2
	c-0.8-0.8-1.8-1.3-3-1.3c-1.1,0-2.2,0.5-3,1.3c-0.8,0.9-1.3,2-1.2,3.2c0,1.2,0.5,2.4,1.2,3.2c0.8,0.8,1.8,1.3,3,1.3
	c1.1,0,2.2-0.5,3-1.3C111.4,18.3,111.8,17.2,111.8,16z M44,15.7c-0.7-0.3-1.5-0.6-2.2-0.8c-0.7-0.2-1.4-0.4-1.9-0.7
	c-0.3-0.1-0.5-0.3-0.6-0.4c-0.1-0.2-0.2-0.3-0.2-0.6c0-0.3,0.1-0.6,0.2-0.8c0.2-0.3,0.6-0.6,1-0.7c0.4-0.2,0.9-0.2,1.2-0.2
	c1,0,1.6,0.3,2,0.6c0.2,0.2,0.4,0.3,0.6,0.5c0.1,0.1,0.2,0.1,0.3,0.2c0.1,0,0.2,0.1,0.3,0.1c0.1,0,0.2,0,0.2,0
	c0.1,0,0.1-0.1,0.2-0.1c0.1-0.1,0.1-0.1,0.2-0.2c0-0.1,0-0.2,0-0.2c0-0.1,0-0.3-0.1-0.4c-0.1-0.2-0.3-0.4-0.6-0.7
	c-0.4-0.4-0.9-0.6-1.4-0.9c-0.5-0.2-1.1-0.4-1.6-0.4c-1.3,0-2.3,0.3-3.1,0.8c-0.4,0.3-0.7,0.6-1,1c-0.2,0.4-0.4,0.9-0.4,1.6v0.1
	c0,0.6,0.2,1.2,0.5,1.6c0.5,0.6,1.2,1,2,1.2c0.7,0.3,1.4,0.4,1.9,0.6c0.6,0.2,1.3,0.4,1.8,0.7c0.2,0.2,0.4,0.3,0.6,0.5
	c0.1,0.2,0.2,0.4,0.2,0.6v0c0,0.4-0.1,0.6-0.3,0.9c-0.3,0.4-0.7,0.6-1.2,0.8c-0.4,0.1-0.8,0.2-1.3,0.2c-1.1,0-1.8-0.3-2.4-0.5
	c-0.3-0.1-0.5-0.3-0.7-0.4c-0.1-0.1-0.2-0.1-0.3-0.1c-0.1,0-0.2-0.1-0.3-0.1c-0.1,0-0.1,0-0.2,0c-0.1,0-0.1,0.1-0.2,0.1
	c-0.1,0.1-0.1,0.2-0.2,0.2c0,0.1-0.1,0.2-0.1,0.3c0,0.2,0.1,0.3,0.2,0.4c0.1,0.2,0.3,0.4,0.6,0.5c0.3,0.2,0.6,0.3,0.9,0.5
	c0.8,0.4,1.8,0.6,2.6,0.6h0c1.2,0,2.2-0.3,3.1-0.9v0h0c0.9-0.6,1.4-1.6,1.4-2.6c0-0.6-0.1-1.1-0.4-1.5C45.3,16.5,44.7,16.1,44,15.7z
	 M99.1,4.9c-0.2,0-0.4,0.1-0.6,0.2c-0.2,0.2-0.2,0.4-0.2,0.6v15.6c0,0.2,0.1,0.4,0.2,0.6c0.2,0.2,0.4,0.2,0.6,0.2
	c0.5,0,0.9-0.4,0.9-0.8V5.7C100,5.3,99.6,4.9,99.1,4.9z M137.9,15.6L137.9,15.6c0,0.3-0.1,0.5-0.3,0.7c-0.2,0.1-0.4,0.2-0.6,0.2
	h-9.5c0.2,2.3,2.1,4,4.3,4h0.6c0.7,0,1.4-0.2,2.1-0.7c0.6-0.4,1.2-1,1.5-1.6c0.1-0.1,0.2-0.2,0.3-0.3c0.3-0.1,0.6-0.1,0.8,0l0,0l0,0
	c0.2,0.2,0.4,0.4,0.4,0.7c0,0.1,0,0.3-0.1,0.4l0,0l0,0c-0.5,0.9-1.3,1.6-2.1,2.1c-0.9,0.5-1.9,0.9-2.9,0.9h-0.6
	c-1.6,0-3.1-0.7-4.2-1.8c-1.1-1.1-1.7-2.7-1.7-4.3c0-1.7,0.7-3.2,1.8-4.3c1.1-1.2,2.7-1.8,4.3-1.8c1.6,0,3,0.6,4.1,1.7
	C137.1,12.6,137.8,14,137.9,15.6C137.9,15.6,137.9,15.6,137.9,15.6z M136.1,14.9c-0.5-1.9-2.2-3.3-4.1-3.3c-2,0-3.7,1.3-4.2,3.3
	H136.1z M53,9.9c-1.3,0-2.5,0.5-3.4,1.3v-0.5c0-0.2-0.1-0.4-0.2-0.6C49.2,10,49,9.9,48.8,9.9c-0.2,0-0.4,0.1-0.6,0.2
	c-0.2,0.2-0.2,0.4-0.2,0.6v10.8l0,0l0,0c0,0,0,0.1,0.1,0.1c0.1,0.2,0.3,0.4,0.5,0.4l0,0h0.2c0.1,0,0.2,0,0.4-0.1
	c0.1-0.1,0.2-0.1,0.3-0.2h0c0,0,0,0,0,0c0-0.1,0.1-0.1,0.1-0.2c0-0.1,0-0.1,0.1-0.2l0,0V15c0-0.9,0.4-1.7,1-2.4c0.6-0.6,1.5-1,2.4-1
	c0.9,0,1.8,0.4,2.4,1c0.6,0.6,1,1.4,1,2.4v6.4c0,0.2,0.1,0.4,0.3,0.6c0.3,0.3,0.8,0.3,1.2,0c0.2-0.2,0.3-0.4,0.3-0.6V15
	C58.1,12.2,55.8,9.9,53,9.9L53,9.9z M69.8,11.7c1.1,1.2,1.7,2.7,1.7,4.3c0,1.6-0.6,3.1-1.7,4.3c-1.1,1.1-2.5,1.8-4.2,1.8
	c-1.6,0-3.1-0.7-4.2-1.8c-2.3-2.4-2.3-6.2,0-8.6c1.1-1.1,2.5-1.8,4.2-1.8C67.2,9.9,68.7,10.6,69.8,11.7z M69.8,16
	c0-1.2-0.5-2.4-1.2-3.2c-0.8-0.8-1.8-1.3-2.9-1.3c-1.1,0-2.2,0.5-2.9,1.3c-0.8,0.9-1.3,2-1.2,3.2c0,1.2,0.4,2.3,1.2,3.2
	c0.8,0.8,1.8,1.3,3,1.3c1.1,0,2.2-0.5,2.9-1.3C69.3,18.3,69.8,17.2,69.8,16L69.8,16z M88,10L88,10L88,10c-0.1,0-0.2-0.1-0.3-0.1
	c-0.2,0-0.3,0-0.5,0.1c-0.1,0.1-0.3,0.2-0.3,0.4v0l-3.2,8.7l-2.5-5.8l0,0c-0.1-0.2-0.2-0.3-0.3-0.4c-0.3-0.2-0.7-0.2-0.9,0
	c-0.1,0.1-0.3,0.2-0.3,0.4l0,0l-2.5,5.8l-3.2-8.7h0c-0.1-0.2-0.2-0.3-0.3-0.4c-0.1-0.1-0.3-0.1-0.5-0.1c-0.1,0-0.2,0-0.3,0.1h0l0,0
	c-0.3,0.1-0.5,0.4-0.5,0.8c0,0.1,0,0.2,0.1,0.3l4,10.5v0c0,0.1,0.1,0.2,0.1,0.2c0.1,0.1,0.1,0.1,0.2,0.1c0,0,0,0,0.1,0
	c0,0,0.1,0,0.1,0c0.1,0,0.2,0.1,0.3,0.1c0.2,0,0.3-0.1,0.4-0.1c0.1-0.1,0.2-0.2,0.3-0.4l0,0l2.5-5.9l2.5,5.9h0
	c0.1,0.2,0.2,0.3,0.3,0.4c0.1,0.1,0.3,0.1,0.4,0.2h0.1c0.1,0,0.2,0,0.3,0c0.1,0,0.1-0.1,0.2-0.1c0.1-0.1,0.2-0.2,0.3-0.4v0l4-10.5
	C88.6,10.7,88.4,10.2,88,10z"/>
</svg>
